<svg xmlns="http://www.w3.org/2000/svg" width="900" height="520" viewBox="0 0 900 520">
<rect width="100%" height="100%" fill="white"/>
<style>text{font-family:Arial,sans-serif;fill:#222}.title{font-size:24px;font-weight:700}.axis{font-size:14px}.label{font-size:13px}.legend{font-size:13px}</style>
<text x="450" y="36" text-anchor="middle" class="title">Unsupervised clustering comparison</text><line x1="90" y1="415" x2="870" y2="415" stroke="#ddd"/><text x="78" y="420" text-anchor="end" class="axis">0.00</text><line x1="90" y1="346" x2="870" y2="346" stroke="#ddd"/><text x="78" y="351" text-anchor="end" class="axis">0.15</text><line x1="90" y1="277" x2="870" y2="277" stroke="#ddd"/><text x="78" y="282" text-anchor="end" class="axis">0.30</text><line x1="90" y1="208" x2="870" y2="208" stroke="#ddd"/><text x="78" y="213" text-anchor="end" class="axis">0.45</text><line x1="90" y1="139" x2="870" y2="139" stroke="#ddd"/><text x="78" y="144" text-anchor="end" class="axis">0.60</text><line x1="90" y1="70" x2="870" y2="70" stroke="#ddd"/><text x="78" y="75" text-anchor="end" class="axis">0.75</text><text x="220" y="462" text-anchor="middle" class="label">K-Means</text><rect x="154" y="106.47800000000001" width="39" height="308.522" fill="#4C78A8"><title>ARI: 0.6707</title></rect><rect x="198" y="159.88400000000001" width="39" height="255.11599999999999" fill="#F58518"><title>NMI: 0.5546</title></rect><rect x="242" y="256.3" width="39" height="158.7" fill="#54A24B"><title>Silhouette: 0.345</title></rect><text x="480" y="462" text-anchor="middle" class="label">Hierarchical</text><rect x="414" y="150.5" width="39" height="264.5" fill="#4C78A8"><title>ARI: 0.575</title></rect><rect x="458" y="204.82600000000002" width="39" height="210.17399999999998" fill="#F58518"><title>NMI: 0.4569</title></rect><rect x="502" y="258.876" width="39" height="156.124" fill="#54A24B"><title>Silhouette: 0.3394</title></rect><text x="740" y="462" text-anchor="middle" class="label">GMM</text><rect x="674" y="103.166" width="39" height="311.834" fill="#4C78A8"><title>ARI: 0.6779</title></rect><rect x="718" y="157.262" width="39" height="257.738" fill="#F58518"><title>NMI: 0.5603</title></rect><rect x="762" y="269.778" width="39" height="145.222" fill="#54A24B"><title>Silhouette: 0.3157</title></rect><rect x="90" y="492" width="14" height="14" fill="#4C78A8"/><text x="110" y="504" class="legend">ARI</text><rect x="270" y="492" width="14" height="14" fill="#F58518"/><text x="290" y="504" class="legend">NMI</text><rect x="450" y="492" width="14" height="14" fill="#54A24B"/><text x="470" y="504" class="legend">Silhouette</text></svg>